<svg xmlns="http://www.w3.org/2000/svg" data-name="Layer 1" viewBox="0 0 128 160" x="0px" y="0px"><path fill="#fff" d="M110.76,9.56a10,10,0,0,1,10,10V84.7a10,10,0,0,1-10,10v23.74L83.35,94.7H17.24a10,10,0,0,1-10-10V19.56a10,10,0,0,1,10-10h93.53m-67,45.07H61.5V72.41A2.6,2.6,0,0,0,63.74,75H64a2.5,2.5,0,0,0,2.5-2.5V54.63H84.43a2.5,2.5,0,0,0,2.49-2.76,2.6,2.6,0,0,0-2.63-2.24H66.5V31.7A2.5,2.5,0,0,0,64,29.2h-.26a2.6,2.6,0,0,0-2.24,2.63V49.63H43.57a2.5,2.5,0,0,0-2.49,2.76,2.6,2.6,0,0,0,2.63,2.24m67-49.07H17.24a14,14,0,0,0-14,14V84.7a14,14,0,0,0,14,14H81.86l26.29,22.77a4,4,0,0,0,6.62-3V98.12a14,14,0,0,0,10-13.42V19.56a14,14,0,0,0-14-14Z"/></svg>
